<svg width="13" height="11" viewBox="0 0 13 11" fill="none" xmlns="http://www.w3.org/2000/svg">
<path d="M0.175584 -0.00630852C0.074032 -0.00647899 -0.00702404 0.0732931 -0.00234711 0.168815L0.451577 9.44781C0.493528 10.3066 1.2415 10.9803 2.15423 10.9818L10.797 10.9964C11.7098 10.9979 12.46 10.3267 12.5048 9.46804L12.99 0.190625C12.995 0.0951189 12.9142 0.0150751 12.8126 0.0149046L0.175584 -0.00630852ZM8.76833 1.34773C8.76883 1.05168 9.02392 0.812313 9.33836 0.812841C9.6528 0.813369 9.90707 1.05359 9.90658 1.34964L9.89486 8.31561C9.89437 8.61167 9.63928 8.85103 9.32484 8.8505C9.0104 8.84997 8.75612 8.60975 8.75662 8.3137L8.76833 1.34773ZM5.92273 1.34295C5.92323 1.0469 6.17831 0.807536 6.49275 0.808064C6.80719 0.808592 7.06147 1.04881 7.06097 1.34486L7.04926 8.31083C7.04876 8.60689 6.79368 8.84625 6.47924 8.84572C6.1648 8.8452 5.91052 8.60498 5.91102 8.30892L5.92273 1.34295ZM3.07713 1.33818C3.07763 1.04212 3.33271 0.802759 3.64715 0.803287C3.96159 0.803815 4.21587 1.04403 4.21537 1.34009L4.20366 8.30606C4.20316 8.60211 3.94807 8.84147 3.63363 8.84095C3.3192 8.84042 3.06492 8.6002 3.06542 8.30415L3.07713 1.33818Z" fill="white"/>
</svg>
