<svg width="186" height="162" viewBox="0 0 186 162" fill="none" xmlns="http://www.w3.org/2000/svg">
<path d="M126.876 161.363H44.1304C40.3528 161.363 36.6969 160.025 33.8087 157.584C30.9204 155.144 28.9858 151.759 28.3467 148.027L16.9757 81.6371H154.03L142.659 148.027C142.02 151.759 140.086 155.144 137.197 157.584C134.309 160.025 130.653 161.363 126.876 161.363Z" fill="black"/>
<path d="M154.327 75.2333H16.6795C13.4168 75.2333 10.7719 77.8843 10.7719 81.1545C10.7719 84.4247 13.4168 87.0757 16.6795 87.0757H154.327C157.589 87.0757 160.234 84.4247 160.234 81.1545C160.234 77.8843 157.589 75.2333 154.327 75.2333Z" fill="white"/>
<path d="M154.328 87.543H16.6794C14.9892 87.543 13.3682 86.87 12.173 85.6721C10.9778 84.4741 10.3063 82.8494 10.3063 81.1552C10.3063 79.4611 10.9778 77.8363 12.173 76.6384C13.3682 75.4404 14.9892 74.7675 16.6794 74.7675H154.328C156.018 74.7675 157.639 75.4404 158.835 76.6384C160.03 77.8363 160.701 79.4611 160.701 81.1552C160.701 82.8494 160.03 84.4741 158.835 85.6721C157.639 86.87 156.018 87.543 154.328 87.543ZM16.6809 75.7013C15.2378 75.7013 13.8538 76.2759 12.8333 77.2987C11.8129 78.3215 11.2396 79.7088 11.2396 81.1552C11.2396 82.6017 11.8129 83.9889 12.8333 85.0117C13.8538 86.0345 15.2378 86.6091 16.6809 86.6091H154.328C155.771 86.6091 157.155 86.0345 158.176 85.0117C159.196 83.9889 159.77 82.6017 159.77 81.1552C159.77 79.7088 159.196 78.3215 158.176 77.2987C157.155 76.2759 155.771 75.7013 154.328 75.7013H16.6809Z" fill="#757575"/>
<path d="M103.73 77.5207C102.191 79.4599 102.512 82.2822 104.446 83.8246C106.381 85.367 109.197 85.0454 110.736 83.1063L137.079 49.9105C138.618 47.9713 138.297 45.149 136.363 43.6066C134.428 42.0642 131.612 42.3858 130.073 44.3249L103.73 77.5207Z" fill="white"/>
<path d="M107.222 85.2684C106.107 85.2691 105.026 84.8889 104.155 84.1907C103.131 83.3721 102.472 82.1796 102.324 80.8749C102.176 79.5701 102.55 78.2597 103.364 77.231L129.707 44.0348C130.111 43.5257 130.612 43.1014 131.179 42.786C131.747 42.4707 132.371 42.2705 133.016 42.1969C133.661 42.1232 134.314 42.1776 134.937 42.3569C135.561 42.5363 136.144 42.837 136.652 43.2419C137.16 43.6469 137.583 44.1482 137.898 44.7171C138.212 45.286 138.412 45.9115 138.485 46.5579C138.559 47.2042 138.505 47.8587 138.326 48.484C138.147 49.1093 137.847 49.6931 137.443 50.2022L111.1 83.398C110.697 83.9084 110.197 84.3336 109.629 84.6491C109.061 84.9646 108.437 85.164 107.791 85.2359C107.602 85.2575 107.412 85.2683 107.222 85.2684ZM104.735 83.46C105.147 83.7887 105.62 84.0327 106.126 84.1782C106.633 84.3237 107.163 84.3678 107.686 84.3081C108.209 84.2483 108.716 84.0858 109.176 83.8299C109.637 83.5739 110.043 83.2295 110.37 82.8164L136.713 49.6202C137.041 49.2071 137.285 48.7333 137.43 48.2259C137.575 47.7185 137.619 47.1874 137.56 46.6629C137.5 46.1384 137.338 45.6308 137.083 45.1691C136.828 44.7074 136.484 44.3005 136.072 43.9719C135.66 43.6432 135.187 43.3991 134.681 43.2535C134.175 43.1079 133.645 43.0637 133.122 43.1234C132.598 43.1831 132.092 43.3455 131.631 43.6013C131.171 43.8572 130.765 44.2015 130.437 44.6146L104.093 77.8104C103.433 78.6451 103.129 79.7085 103.249 80.7673C103.37 81.8261 103.904 82.7938 104.735 83.4582V83.46Z" fill="#757575"/>
<path d="M106.932 82.3823C107.864 82.3823 108.619 81.6254 108.619 80.6916C108.619 79.7579 107.864 79.0009 106.932 79.0009C106.001 79.0009 105.245 79.7579 105.245 80.6916C105.245 81.6254 106.001 82.3823 106.932 82.3823Z" fill="white"/>
<path d="M106.937 82.8496C106.619 82.8498 106.304 82.7793 106.016 82.6431C105.728 82.507 105.474 82.3085 105.271 82.0621C105.069 81.8156 104.924 81.5273 104.846 81.2178C104.768 80.9083 104.759 80.5853 104.821 80.2721C104.9 79.8715 105.091 79.5017 105.372 79.2057C105.653 78.9098 106.012 78.6998 106.407 78.6002C106.802 78.5006 107.217 78.5155 107.605 78.6432C107.992 78.7709 108.335 79.0061 108.594 79.3215C108.852 79.6368 109.017 80.0194 109.067 80.4247C109.118 80.83 109.053 81.2413 108.879 81.6109C108.706 81.9805 108.431 82.2931 108.087 82.5123C107.743 82.7316 107.345 82.8486 106.937 82.8496ZM105.735 80.4537C105.68 80.7315 105.722 81.0198 105.856 81.2696C105.989 81.5193 106.205 81.715 106.466 81.8233C106.727 81.9317 107.017 81.9459 107.288 81.8636C107.558 81.7813 107.792 81.6075 107.948 81.372C108.105 81.1364 108.176 80.8536 108.148 80.5717C108.12 80.2899 107.996 80.0264 107.796 79.8262C107.596 79.6261 107.333 79.5016 107.052 79.474C106.771 79.4463 106.488 79.5173 106.254 79.6748C105.985 79.8553 105.798 80.1354 105.735 80.4537Z" fill="#757575"/>
<path d="M40.9339 44.3251C39.395 42.386 36.5791 42.0644 34.6444 43.6068C32.7097 45.1492 32.3889 47.9715 33.9277 49.9107L60.2713 83.1065C61.8102 85.0456 64.626 85.3672 66.5607 83.8248C68.4954 82.2824 68.8163 79.4601 67.2774 77.5209L40.9339 44.3251Z" fill="white"/>
<path d="M63.7793 85.2654C63.035 85.2669 62.3001 85.0997 61.6294 84.7762C60.9588 84.4528 60.3698 83.9815 59.9066 83.3976L33.5629 50.2018C32.747 49.1737 32.3719 47.8628 32.5202 46.5575C32.6686 45.2522 33.3282 44.0594 34.354 43.2416C35.3797 42.4237 36.6876 42.0478 37.9899 42.1965C39.2922 42.3452 40.4823 43.0063 41.2982 44.0344L67.6419 77.2307C68.2207 77.9594 68.5827 78.837 68.6862 79.7626C68.7898 80.6882 68.6307 81.6244 68.2274 82.4635C67.824 83.3026 67.1926 84.0107 66.4058 84.5063C65.6189 85.0019 64.7086 85.265 63.7793 85.2654ZM37.4267 43.1002C36.6727 43.1007 35.9341 43.3144 35.2958 43.7167C34.6575 44.1189 34.1453 44.6934 33.818 45.3742C33.4907 46.0551 33.3616 46.8146 33.4455 47.5656C33.5294 48.3167 33.8229 49.0288 34.2923 49.6202L60.6356 82.816C61.2984 83.6493 62.2638 84.185 63.3202 84.3057C64.3766 84.4263 65.4376 84.1221 66.2704 83.4597C66.6826 83.1311 67.0262 82.7244 67.2815 82.2627C67.5369 81.8011 67.699 81.2936 67.7586 80.7691C67.8182 80.2446 67.7742 79.7135 67.6291 79.2061C67.4839 78.6987 67.2404 78.225 66.9125 77.8119L40.5692 44.6161C40.1933 44.1423 39.7154 43.7599 39.1712 43.4974C38.627 43.2349 38.0306 43.0991 37.4267 43.1002Z" fill="#757575"/>
<path d="M64.0737 82.3823C65.0053 82.3823 65.7606 81.6254 65.7606 80.6916C65.7606 79.7579 65.0053 79.0009 64.0737 79.0009C63.1421 79.0009 62.3869 79.7579 62.3869 80.6916C62.3869 81.6254 63.1421 82.3823 64.0737 82.3823Z" fill="white"/>
<path d="M64.0693 82.8496C63.6616 82.8489 63.2624 82.7322 62.9183 82.5129C62.5741 82.2937 62.2992 81.9811 62.1254 81.6114C61.9516 81.2417 61.8861 80.8301 61.9366 80.4245C61.9871 80.019 62.1514 79.6361 62.4105 79.3205C62.6695 79.0049 63.0127 78.7696 63.4 78.6418C63.7873 78.514 64.2029 78.4991 64.5983 78.5988C64.9937 78.6985 65.3528 78.9087 65.6337 79.2049C65.9146 79.5011 66.1058 79.8712 66.1851 80.2721C66.2466 80.5853 66.2381 80.9082 66.1603 81.2177C66.0824 81.5271 65.9371 81.8154 65.7348 82.0619C65.5325 82.3084 65.2782 82.5068 64.9902 82.643C64.7022 82.7792 64.3877 82.8498 64.0693 82.8496ZM64.0764 79.4675C63.8246 79.4669 63.5788 79.5443 63.3727 79.6892C63.1665 79.834 63.0101 80.0392 62.9248 80.2767C62.8395 80.5141 62.8295 80.7722 62.8962 81.0155C62.9629 81.2588 63.103 81.4755 63.2974 81.6359C63.4918 81.7964 63.7308 81.8926 63.9819 81.9116C64.233 81.9305 64.4837 81.8712 64.6998 81.7417C64.916 81.6123 65.0869 81.419 65.1892 81.1884C65.2915 80.9579 65.3201 80.7012 65.2713 80.4537C65.2163 80.1763 65.0672 79.9266 64.8495 79.7468C64.6317 79.5671 64.3585 79.4684 64.0764 79.4675Z" fill="#757575"/>
<path d="M88.9907 107.899C88.9907 105.968 87.4291 104.403 85.5028 104.403C83.5765 104.403 82.015 105.968 82.015 107.899V140.951C82.015 142.882 83.5765 144.448 85.5028 144.448C87.4291 144.448 88.9907 142.882 88.9907 140.951V107.899Z" fill="white"/>
<path d="M55.6477 107.559C55.3517 105.651 53.5687 104.345 51.6653 104.641C49.7618 104.938 48.4587 106.725 48.7547 108.633L53.8213 141.293C54.1173 143.201 55.9002 144.507 57.8037 144.21C59.7071 143.914 61.0102 142.127 60.7142 140.219L55.6477 107.559Z" fill="white"/>
<path d="M111.012 140.218C110.716 142.126 112.019 143.913 113.922 144.21C115.826 144.507 117.609 143.2 117.905 141.292L122.971 108.633C123.267 106.725 121.964 104.937 120.061 104.641C118.157 104.344 116.374 105.65 116.078 107.558L111.012 140.218Z" fill="white"/>
<path d="M68.2916 60.1988C68.1918 60.1989 68.0944 60.1677 68.0132 60.1096C67.9088 60.0356 67.8381 59.9232 67.8165 59.7971C67.795 59.671 67.8245 59.5414 67.8984 59.437C67.9877 59.3111 76.707 46.7056 66.9731 35.2136C65.2502 33.169 63.1011 31.5259 60.6763 30.3995C58.2516 29.2731 55.6098 28.6905 52.9361 28.6928H52.8049C53.7293 31.904 53.5643 34.7591 52.2554 36.9494C51.6977 37.9392 50.8747 38.7536 49.8791 39.3008C48.8835 39.848 47.7548 40.1064 46.6203 40.0468C45.6812 39.9699 44.7849 39.6207 44.0412 39.0422C43.2975 38.4636 42.7386 37.6806 42.4331 36.7893C41.3626 33.9968 42.4814 31.2893 45.4301 29.5443C47.2981 28.5141 49.3738 27.9171 51.5037 27.7973C50.8108 25.9603 49.9099 24.2087 48.8184 22.5767C45.3037 17.2089 38.8982 13.4931 31.2436 12.382C24.7566 11.4407 18.5397 12.5494 15.4032 15.2058C15.3056 15.2885 15.179 15.3289 15.0515 15.3183C14.924 15.3077 14.8059 15.2468 14.7232 15.1491C14.6406 15.0514 14.6001 14.9249 14.6107 14.7974C14.6214 14.6698 14.6822 14.5517 14.7799 14.4691C18.1175 11.6424 24.634 10.4474 31.3821 11.4296C39.3102 12.5808 45.9594 16.4515 49.626 22.0503C50.8147 23.826 51.7817 25.7404 52.5053 27.751C55.3895 27.6817 58.2525 28.2604 60.8834 29.4444C63.5143 30.6284 65.846 32.3875 67.7069 34.5922C77.9315 46.6627 68.7765 59.8655 68.6829 59.9976C68.6383 60.0598 68.5795 60.1105 68.5115 60.1454C68.4435 60.1804 68.3681 60.1987 68.2916 60.1988ZM51.8168 28.728C49.7518 28.816 47.7351 29.3797 45.9237 30.3751C43.3783 31.8813 42.4355 34.0938 43.3363 36.4443C43.5803 37.1645 44.029 37.798 44.6274 38.2672C45.2259 38.7364 45.9481 39.021 46.7057 39.0862C47.6597 39.129 48.6067 38.9055 49.4409 38.4408C50.2751 37.9761 50.9636 37.2885 51.4294 36.4549C52.6307 34.4431 52.7407 31.7689 51.8154 28.728H51.8168Z" fill="#292A2E"/>
<path d="M7.07661 22.9844C6.25676 23.2307 5.37314 23.1472 4.6139 22.7517C3.85467 22.3563 3.2798 21.6801 3.0117 20.8671C2.7436 20.0541 2.80344 19.1686 3.1785 18.399C3.55355 17.6295 4.21418 17.0368 5.01972 16.7471C5.82526 16.4574 6.71207 16.4936 7.49133 16.8479C8.27059 17.2023 8.88074 17.8469 9.19185 18.6444C9.50297 19.4419 9.49047 20.3294 9.15703 21.1178C8.82359 21.9063 8.19554 22.5334 7.40661 22.8657C7.29886 22.9112 7.18869 22.9509 7.07661 22.9844ZM5.47246 17.6234C5.39431 17.6469 5.31749 17.6746 5.24233 17.7063C4.68722 17.9404 4.24542 18.3819 4.01104 18.9369C3.77665 19.4919 3.7682 20.1164 3.98748 20.6775C4.20676 21.2386 4.63644 21.692 5.18501 21.941C5.73358 22.19 6.35769 22.2149 6.92441 22.0106C7.49112 21.8062 7.95566 21.3887 8.21909 20.8469C8.48252 20.3051 8.52401 19.6819 8.33473 19.11C8.14545 18.538 7.74036 18.0626 7.20573 17.7849C6.6711 17.5073 6.0492 17.4493 5.47246 17.6234Z" fill="#292A2E"/>
<path d="M7.07084 15.4243C6.29529 15.6559 5.46152 15.5926 4.72982 15.2466C3.99811 14.9006 3.42014 14.2964 3.10701 13.55C2.85595 12.9517 2.78797 12.2923 2.91166 11.6553C3.03536 11.0183 3.34517 10.4323 3.80192 9.97142C4.25868 9.51052 4.84185 9.19541 5.47769 9.06596C6.11354 8.93651 6.77349 8.99853 7.37408 9.24417C7.97468 9.4898 8.48895 9.90803 8.85184 10.446C9.21474 10.9839 9.40996 11.6173 9.41283 12.2662C9.41569 12.9151 9.22606 13.5503 8.86793 14.0914C8.5098 14.6325 7.99924 15.0552 7.40084 15.3061C7.29297 15.3513 7.18282 15.3907 7.07084 15.4243ZM5.46861 10.0629C5.38953 10.0866 5.31175 10.1144 5.23559 10.1463C4.66961 10.384 4.22118 10.8368 3.98886 11.405C3.75654 11.9732 3.75934 12.6104 3.99665 13.1766C4.16972 13.5893 4.45867 13.943 4.82854 14.195C5.19841 14.4469 5.63336 14.5863 6.08077 14.5962C6.52819 14.6062 6.9689 14.4863 7.3496 14.251C7.7303 14.0157 8.03468 13.6752 8.22592 13.2706C8.41716 12.866 8.48707 12.4147 8.42719 11.9712C8.3673 11.5277 8.1802 11.111 7.88851 10.7716C7.59681 10.4322 7.21302 10.1846 6.78356 10.0587C6.3541 9.93286 5.89737 9.93412 5.46861 10.0624V10.0629Z" fill="#292A2E"/>
<path d="M6.13439 18.8362C8.50367 18.8362 10.4244 17.5534 10.4244 15.971C10.4244 14.3885 8.50367 13.1057 6.13439 13.1057C3.76511 13.1057 1.84442 14.3885 1.84442 15.971C1.84442 17.5534 3.76511 18.8362 6.13439 18.8362Z" fill="white"/>
<path d="M8.0333 19.0471C7.41823 19.2289 6.78007 19.3205 6.1387 19.3192C3.46206 19.3192 1.36243 17.8525 1.36243 15.9753C1.36243 14.0981 3.45579 12.6261 6.13147 12.6232C7.29802 12.6009 8.44574 12.9194 9.43386 13.5399C9.87765 13.7711 10.2496 14.1195 10.5093 14.5472C10.769 14.9749 10.9066 15.4656 10.907 15.966C10.9075 16.4664 10.7708 16.9574 10.5119 17.3856C10.2529 17.8138 9.88157 18.1628 9.4382 18.3948C9.00476 18.6806 8.5313 18.9004 8.0333 19.0471ZM4.52973 13.8178C3.24062 14.2037 2.32685 15.0369 2.32733 15.9729C2.32733 17.2644 4.07236 18.3543 6.1387 18.3523C7.1148 18.3729 8.07574 18.1087 8.90412 17.592C9.21481 17.4489 9.47793 17.2197 9.66226 16.9316C9.8466 16.6434 9.94441 16.3085 9.94411 15.9664C9.9438 15.6244 9.84539 15.2896 9.66054 15.0018C9.47569 14.714 9.21217 14.4852 8.90123 14.3427C8.07224 13.8271 7.11084 13.5645 6.13485 13.5872C5.59145 13.5858 5.05075 13.6634 4.52973 13.8178Z" fill="#292A2E"/>
<path d="M7.18662 18.7489L7.0853 13.1766L5.6997 13.1206L5.60272 18.8141L7.18662 18.7489Z" fill="#292A2E"/>
<path d="M0.442891 17.1834C0.687493 17.1834 0.885782 16.9851 0.885782 16.7405C0.885782 16.4959 0.687493 16.2976 0.442891 16.2976C0.198289 16.2976 0 16.4959 0 16.7405C0 16.9851 0.198289 17.1834 0.442891 17.1834Z" fill="#292A2E"/>
<path d="M0.788777 14.8136C1.03338 14.8136 1.23167 14.6153 1.23167 14.3707C1.23167 14.1261 1.03338 13.9278 0.788777 13.9278C0.544175 13.9278 0.345886 14.1261 0.345886 14.3707C0.345886 14.6153 0.544175 14.8136 0.788777 14.8136Z" fill="#292A2E"/>
<path d="M103.633 64.0528C103.529 64.0528 103.429 64.0196 103.346 63.9582C103.263 63.8968 103.202 63.8104 103.171 63.7117C101.571 57.7359 101.144 51.5066 101.914 45.3684C103.161 36.3948 108.11 24.6176 124.604 19.4607C126.924 18.7145 129.305 18.1688 131.719 17.8295C132.496 12.9755 135.453 7.71006 142.065 4.07719C157.774 -4.55484 168.386 3.18996 168.491 3.26909C168.593 3.34586 168.661 3.46015 168.679 3.58682C168.697 3.71349 168.664 3.84216 168.588 3.94452C168.511 4.04688 168.396 4.11456 168.27 4.13265C168.143 4.15075 168.014 4.11778 167.912 4.04101C167.812 3.96575 157.671 -3.39696 142.53 4.92342C136.351 8.31843 133.523 13.1912 132.719 17.7147C139.994 16.9982 143.478 19.425 145.041 21.2578C146.009 22.36 146.631 23.7225 146.829 25.1755C147.028 26.6285 146.794 28.1078 146.158 29.4291C145.655 30.4971 144.84 31.3874 143.821 31.9825C142.801 32.5776 141.625 32.8496 140.448 32.7624C136.385 32.524 133.023 29.1063 131.883 24.0551C131.508 22.3451 131.408 20.5861 131.587 18.8446C129.317 19.1708 127.077 19.6857 124.892 20.3841C112.037 24.4034 104.629 32.8555 102.869 45.5039C102.115 51.5029 102.531 57.5911 104.094 63.4319C104.116 63.504 104.121 63.5803 104.108 63.6547C104.095 63.7291 104.065 63.7994 104.02 63.8601C103.976 63.9207 103.917 63.97 103.85 64.004C103.782 64.038 103.708 64.0557 103.633 64.0557V64.0528ZM132.571 18.724C132.37 20.4323 132.456 22.1622 132.825 23.8423C133.867 28.4632 136.882 31.5862 140.504 31.7989C141.492 31.8697 142.478 31.6403 143.332 31.141C144.187 30.6416 144.871 29.8956 145.294 29.0007C145.846 27.8485 146.046 26.5595 145.871 25.2942C145.695 24.0289 145.151 22.8433 144.306 21.885C142.05 19.2378 137.933 18.1687 132.571 18.724Z" fill="#292A2E"/>
<path d="M179.729 8.14524C179.079 8.14388 178.443 7.9588 177.894 7.61136C177.345 7.26392 176.905 6.76829 176.626 6.18166C176.346 5.59504 176.238 4.94133 176.315 4.296C176.391 3.65066 176.648 3.04 177.056 2.53449C177.464 2.02899 178.007 1.64924 178.622 1.43908C179.237 1.22892 179.899 1.19692 180.531 1.34676C181.163 1.49661 181.74 1.8222 182.196 2.28595C182.651 2.7497 182.966 3.33271 183.104 3.96769C183.212 4.47104 183.206 4.99221 183.087 5.49302C182.967 5.99384 182.737 6.46163 182.414 6.86214C182.09 7.26265 181.681 7.58574 181.217 7.80775C180.752 8.02976 180.244 8.14507 179.729 8.14524ZM179.737 2.2188C179.223 2.21878 178.723 2.37793 178.304 2.6743C177.885 2.97067 177.568 3.38968 177.398 3.87356C177.227 4.35745 177.21 4.8824 177.35 5.37606C177.49 5.86972 177.78 6.30779 178.18 6.62989C178.579 6.95199 179.069 7.14226 179.581 7.17448C180.093 7.2067 180.602 7.07928 181.039 6.80979C181.476 6.5403 181.818 6.142 182.019 5.66978C182.22 5.19757 182.269 4.67469 182.16 4.17321C182.043 3.61838 181.737 3.12105 181.296 2.76505C180.854 2.40904 180.304 2.21612 179.737 2.2188Z" fill="#292A2E"/>
<path d="M178.277 16.0193C177.392 16.0193 176.542 15.6802 175.9 15.0719C175.258 14.4637 174.874 13.6325 174.827 12.7495C174.779 11.8666 175.072 10.999 175.645 10.3254C176.218 9.65183 177.027 9.22352 177.906 9.12864C178.785 9.03377 179.667 9.27956 180.371 9.8154C181.074 10.3513 181.545 11.1364 181.687 12.0092C181.829 12.8819 181.631 13.7759 181.134 14.5071C180.637 15.2383 179.878 15.751 179.014 15.9397C178.772 15.9926 178.525 16.0193 178.277 16.0193ZM178.289 10.0924C178.11 10.0925 177.932 10.1117 177.758 10.1498C177.142 10.2852 176.601 10.6516 176.246 11.1737C175.892 11.6957 175.751 12.3337 175.853 12.9565C175.955 13.5792 176.291 14.1392 176.793 14.5213C177.296 14.9034 177.925 15.0786 178.552 15.0107C179.18 14.9428 179.757 14.6371 180.166 14.1565C180.575 13.6758 180.784 13.0568 180.75 12.4267C180.716 11.7967 180.442 11.2035 179.984 10.7693C179.526 10.3351 178.92 10.0928 178.289 10.0924Z" fill="#292A2E"/>
<path d="M183.458 9.55471C183.762 7.90682 182.008 6.20185 179.541 5.74658C177.074 5.2913 174.827 6.25812 174.523 7.90602C174.219 9.55391 175.973 11.2589 178.44 11.7141C180.907 12.1694 183.154 11.2026 183.458 9.55471Z" fill="white"/>
<path d="M179.655 12.3098C179.218 12.3091 178.782 12.2687 178.352 12.1892C177.139 11.9878 176.011 11.4369 175.106 10.6038C174.71 10.2659 174.405 9.83362 174.221 9.34689C174.036 8.86016 173.977 8.3347 174.049 7.8191C174.166 7.31176 174.409 6.84203 174.755 6.45331C175.101 6.06458 175.54 5.76939 176.03 5.59499C177.178 5.16155 178.422 5.05011 179.629 5.27273C180.835 5.49535 181.958 6.04355 182.875 6.85805C183.271 7.19595 183.575 7.62825 183.76 8.11498C183.945 8.60171 184.004 9.12717 183.932 9.64277C183.815 10.1501 183.572 10.6198 183.226 11.0086C182.88 11.3973 182.441 11.6925 181.951 11.8669C181.223 12.1679 180.442 12.3186 179.655 12.3098ZM178.322 6.11604C177.667 6.10771 177.017 6.23194 176.411 6.48126C176.069 6.59601 175.76 6.79446 175.513 7.05864C175.266 7.32282 175.089 7.64438 174.998 7.99423C174.958 8.35359 175.009 8.71715 175.145 9.05201C175.282 9.38686 175.499 9.68244 175.779 9.91198C176.559 10.5931 177.508 11.0517 178.527 11.2397C179.545 11.4278 180.596 11.3382 181.568 10.9806C181.911 10.8659 182.22 10.6674 182.466 10.4032C182.713 10.1391 182.89 9.81748 182.982 9.46764C183.021 9.10826 182.971 8.74461 182.835 8.40971C182.698 8.07481 182.48 7.77926 182.201 7.54989C181.433 6.84926 180.477 6.3877 179.451 6.2217C179.079 6.1525 178.702 6.11713 178.324 6.11604H178.322Z" fill="#292A2E"/>
<path d="M178.433 5.63552L177.463 11.4568L178.895 11.7829L180.095 5.87337L178.433 5.63552Z" fill="#292A2E"/>
</svg>
