<svg width="15" height="6" viewBox="0 0 15 6" fill="none" xmlns="http://www.w3.org/2000/svg">
<path d="M13.5549 2.12512L10.3836 2.11979L10.3845 1.5942C10.386 0.723368 9.61272 0.0161356 8.65736 0.0145306L6.35096 0.0106557C5.39561 0.00905072 4.61998 0.713681 4.61851 1.58452L4.61763 2.1101L1.44633 2.10478C0.650226 2.10344 0.00384145 2.69065 0.0026223 3.41633L0.00085629 4.4675C0.000368595 4.75779 0.25811 4.99353 0.576573 4.99406L14.415 5.01731C14.7334 5.01784 14.992 4.78298 14.9925 4.49269L14.9942 3.44151C14.9954 2.71584 14.351 2.12646 13.5549 2.12512ZM5.77171 1.58645C5.7722 1.29672 6.03135 1.0613 6.3492 1.06183L8.6556 1.06571C8.97345 1.06624 9.2318 1.30253 9.23132 1.59227L9.23043 2.11785L5.77083 2.11204L5.77171 1.58645Z" fill="white"/>
</svg>
